<svg id="svg" version="1.1" xmlns="http://www.w3.org/2000/svg" xmlns:xlink="http://www.w3.org/1999/xlink" width="400" height="77.35470941883769" viewBox="0, 0, 400,77.35470941883769"><g id="svgg"><path id="path0" d="M5.667 0.167 C 5.667 0.258,5.451 0.333,5.187 0.333 C 4.923 0.333,4.614 0.446,4.500 0.583 C 4.386 0.721,4.159 0.833,3.997 0.833 C 3.834 0.833,3.477 1.089,3.203 1.401 C 2.929 1.713,2.566 1.995,2.396 2.028 C 2.226 2.060,2.060 2.226,2.028 2.396 C 1.995 2.566,1.713 2.929,1.401 3.203 C 1.089 3.477,0.833 3.834,0.833 3.997 C 0.833 4.159,0.721 4.386,0.583 4.500 C 0.446 4.614,0.333 4.923,0.333 5.187 C 0.333 5.451,0.258 5.667,0.167 5.667 C 0.056 5.667,0.000 16.778,0.000 38.667 C 0.000 60.556,0.056 71.667,0.167 71.667 C 0.258 71.667,0.333 71.932,0.333 72.255 C 0.333 72.625,0.426 72.880,0.583 72.940 C 0.721 72.992,0.833 73.166,0.833 73.325 C 0.833 73.485,0.987 73.754,1.174 73.924 C 1.362 74.093,1.633 74.480,1.777 74.783 C 1.920 75.086,2.165 75.333,2.320 75.333 C 2.475 75.333,2.856 75.596,3.167 75.917 C 3.478 76.237,3.835 76.500,3.961 76.500 C 4.087 76.500,4.303 76.613,4.440 76.750 C 4.578 76.888,4.910 77.000,5.179 77.000 C 5.447 77.000,5.667 77.075,5.667 77.167 C 5.667 77.278,33.167 77.333,87.833 77.333 C 142.500 77.333,170.000 77.278,170.000 77.167 C 170.000 77.075,170.282 77.000,170.627 77.000 C 171.064 77.000,171.389 76.874,171.703 76.583 C 171.950 76.354,172.262 76.167,172.397 76.167 C 172.532 76.167,172.783 75.987,172.956 75.768 C 173.128 75.549,173.414 75.342,173.591 75.308 C 173.768 75.274,173.940 75.107,173.972 74.937 C 174.005 74.768,174.287 74.404,174.599 74.130 C 174.911 73.856,175.167 73.494,175.167 73.326 C 175.167 73.157,175.242 72.973,175.333 72.917 C 175.425 72.860,175.500 72.591,175.500 72.318 C 175.500 72.032,175.605 71.782,175.750 71.727 C 176.130 71.581,176.130 5.752,175.750 5.606 C 175.605 5.551,175.500 5.302,175.500 5.015 C 175.500 4.743,175.425 4.473,175.333 4.417 C 175.242 4.360,175.167 4.196,175.167 4.053 C 175.167 3.714,172.619 1.167,172.280 1.167 C 172.137 1.167,171.973 1.092,171.917 1.000 C 171.860 0.908,171.676 0.833,171.508 0.833 C 171.340 0.833,171.159 0.721,171.106 0.583 C 171.050 0.437,170.801 0.333,170.505 0.333 C 170.227 0.333,170.000 0.258,170.000 0.167 C 170.000 0.056,142.500 0.000,87.833 0.000 C 33.167 0.000,5.667 0.056,5.667 0.167 M28.158 17.848 C 34.956 18.711,39.907 23.227,41.753 30.249 C 42.044 31.355,42.124 31.328,38.500 31.328 C 35.170 31.328,35.108 31.316,34.936 30.612 C 34.283 27.946,31.793 25.390,28.896 24.413 C 27.433 23.920,24.090 23.843,23.641 24.293 C 23.527 24.407,23.296 24.500,23.128 24.500 C 22.852 24.500,21.791 25.001,20.917 25.543 C 19.540 26.397,17.864 28.984,17.218 31.250 C 16.796 32.730,16.678 48.770,17.076 50.520 C 18.346 56.101,22.763 58.790,28.865 57.696 C 32.997 56.955,35.683 53.031,35.730 47.667 L 35.750 45.417 31.167 45.327 C 28.646 45.277,26.565 45.221,26.542 45.202 C 26.279 44.981,26.542 39.489,26.822 39.339 C 27.170 39.153,41.595 39.086,42.070 39.268 C 42.384 39.389,42.456 48.175,42.160 50.250 C 41.515 54.765,39.404 58.760,36.583 60.802 C 36.125 61.134,35.712 61.457,35.666 61.521 C 34.805 62.706,29.717 64.170,26.469 64.168 C 18.918 64.163,12.964 60.089,11.120 53.667 C 10.402 51.163,10.417 51.416,10.417 41.667 C 10.417 30.483,10.551 29.358,12.301 25.917 C 13.235 24.082,15.829 20.833,16.362 20.833 C 16.440 20.833,16.810 20.611,17.186 20.339 C 19.887 18.382,24.363 17.366,28.158 17.848 M190.077 18.708 C 190.033 18.823,190.017 29.079,190.040 41.500 L 190.083 64.083 192.833 64.131 C 194.346 64.157,195.752 64.137,195.958 64.086 L 196.333 63.994 196.333 49.173 C 196.333 41.022,196.396 34.314,196.472 34.267 C 196.548 34.220,196.783 34.572,196.993 35.049 C 197.203 35.526,197.770 36.817,198.253 37.917 C 198.736 39.017,199.439 40.577,199.816 41.385 C 200.192 42.192,200.500 42.884,200.500 42.922 C 200.500 42.960,200.715 43.462,200.978 44.037 C 201.241 44.613,201.622 45.458,201.826 45.917 C 202.029 46.375,202.328 47.050,202.491 47.417 C 202.654 47.783,203.022 48.593,203.310 49.216 C 203.598 49.839,203.833 50.395,203.833 50.453 C 203.833 50.510,204.065 51.050,204.348 51.653 C 204.631 52.257,204.928 52.900,205.008 53.083 C 205.088 53.267,205.531 54.231,205.993 55.227 C 206.455 56.223,206.833 57.092,206.833 57.160 C 206.833 57.700,207.499 57.861,209.499 57.806 C 211.777 57.743,211.586 57.855,212.308 56.167 C 212.524 55.663,212.887 54.837,213.115 54.333 C 213.343 53.829,213.625 53.192,213.743 52.917 C 213.860 52.642,214.229 51.801,214.562 51.048 C 214.894 50.295,215.167 49.641,215.167 49.594 C 215.167 49.547,215.362 49.076,215.602 48.546 C 216.078 47.492,216.278 47.044,216.888 45.667 C 217.554 44.161,217.777 43.652,218.418 42.167 C 218.755 41.387,219.180 40.412,219.364 40.000 C 219.547 39.587,219.775 39.063,219.872 38.833 C 220.056 38.394,220.229 37.995,220.882 36.500 C 221.746 34.523,222.246 33.524,222.330 33.607 C 222.377 33.655,222.454 40.532,222.500 48.889 L 222.583 64.083 225.333 64.131 C 226.846 64.157,228.252 64.137,228.458 64.086 L 228.833 63.994 228.833 41.447 C 228.833 24.133,228.787 18.854,228.633 18.700 C 228.347 18.414,223.160 18.421,222.811 18.708 C 222.672 18.823,222.235 19.667,221.840 20.583 C 221.445 21.500,220.794 22.948,220.394 23.802 C 219.994 24.655,219.667 25.381,219.667 25.415 C 219.667 25.449,219.442 25.963,219.167 26.557 C 218.892 27.151,218.667 27.678,218.667 27.728 C 218.667 27.778,218.449 28.290,218.183 28.868 C 217.916 29.445,217.429 30.501,217.099 31.215 C 216.770 31.929,216.500 32.542,216.500 32.578 C 216.500 32.613,216.237 33.211,215.917 33.905 C 215.596 34.600,215.333 35.200,215.333 35.239 C 215.333 35.277,215.081 35.858,214.772 36.529 C 214.463 37.201,213.966 38.313,213.666 39.000 C 213.366 39.688,212.916 40.700,212.666 41.250 C 211.686 43.402,211.507 43.803,210.836 45.333 C 210.455 46.204,209.982 47.240,209.787 47.634 L 209.432 48.352 209.136 47.967 C 208.974 47.756,208.839 47.525,208.837 47.454 C 208.835 47.382,208.568 46.745,208.243 46.037 C 207.208 43.778,206.639 42.506,205.913 40.833 C 205.615 40.146,205.133 39.058,204.842 38.417 C 204.551 37.775,204.248 37.100,204.170 36.917 C 204.092 36.733,203.759 35.999,203.431 35.285 C 203.102 34.571,202.833 33.958,202.833 33.922 C 202.833 33.886,202.608 33.364,202.333 32.762 C 202.058 32.159,201.608 31.174,201.333 30.572 C 201.058 29.969,200.833 29.442,200.833 29.400 C 200.833 29.358,200.568 28.745,200.243 28.037 C 199.919 27.329,199.552 26.525,199.428 26.250 C 199.305 25.975,198.998 25.300,198.747 24.750 C 198.497 24.200,198.048 23.188,197.750 22.500 C 197.452 21.813,197.011 20.824,196.771 20.302 C 196.530 19.781,196.333 19.287,196.333 19.203 C 196.333 18.528,190.326 18.053,190.077 18.708 M307.798 22.205 C 307.779 22.230,307.723 24.350,307.673 26.917 L 307.583 31.583 305.958 31.631 L 304.333 31.679 304.333 34.506 L 304.333 37.333 305.991 37.333 L 307.649 37.333 307.704 47.958 C 307.759 58.290,307.770 58.609,308.112 59.515 C 309.431 63.008,311.065 64.078,315.387 64.274 C 316.698 64.334,318.049 64.330,318.389 64.266 L 319.008 64.150 318.962 61.200 L 318.917 58.250 317.086 58.202 C 314.910 58.146,314.480 57.890,314.176 56.469 C 313.989 55.599,313.923 38.387,314.104 37.713 C 314.200 37.355,314.284 37.341,316.560 37.296 L 318.917 37.250 318.917 34.500 L 318.917 31.750 316.833 31.709 C 315.688 31.687,314.582 31.629,314.378 31.582 L 314.005 31.495 313.961 26.872 L 313.917 22.250 310.875 22.205 C 309.202 22.180,307.818 22.180,307.798 22.205 M67.072 31.092 C 67.628 31.234,68.346 31.425,68.667 31.517 C 69.462 31.744,71.199 32.535,71.474 32.796 C 71.597 32.912,71.903 33.114,72.153 33.243 C 73.248 33.809,75.053 36.394,75.649 38.248 C 76.264 40.159,76.331 41.595,76.332 52.875 L 76.333 63.667 73.333 63.667 L 70.333 63.667 70.333 62.770 C 70.333 61.674,70.042 61.326,69.567 61.854 C 69.113 62.359,67.548 63.333,67.191 63.333 C 67.025 63.333,66.837 63.385,66.774 63.448 C 65.888 64.334,58.597 64.364,56.961 63.488 C 56.801 63.403,56.560 63.333,56.423 63.333 C 56.011 63.333,54.468 62.537,53.588 61.871 C 48.785 58.233,49.477 48.389,54.713 45.859 C 57.048 44.732,57.738 44.637,64.500 44.518 L 70.250 44.417 70.206 42.792 C 70.082 38.206,67.200 35.899,62.333 36.491 C 60.201 36.751,60.170 36.760,57.968 37.841 L 56.520 38.551 54.718 37.331 C 52.225 35.643,52.178 35.607,52.172 35.398 C 52.161 35.015,55.255 32.500,55.737 32.500 C 55.785 32.500,56.220 32.322,56.704 32.105 C 57.653 31.678,58.354 31.457,59.917 31.094 C 61.353 30.760,65.767 30.758,67.072 31.092 M104.421 31.263 C 106.878 32.059,108.846 33.664,109.969 35.792 C 110.643 37.067,110.766 37.073,111.493 35.870 C 115.990 28.426,127.316 29.368,130.082 37.417 C 130.240 37.875,130.426 38.400,130.496 38.583 C 131.022 39.954,131.072 41.035,131.125 52.292 L 131.180 63.667 128.016 63.667 L 124.853 63.667 124.801 52.708 L 124.750 41.750 124.146 40.500 C 121.882 35.816,114.866 35.419,112.577 39.846 C 111.938 41.081,111.927 41.265,111.838 52.500 L 111.750 63.583 108.638 63.629 L 105.526 63.674 105.457 52.879 C 105.383 41.288,105.406 41.610,104.508 39.848 C 102.428 35.772,95.167 35.767,93.083 39.840 C 92.379 41.218,92.333 42.024,92.333 53.114 L 92.333 63.667 89.167 63.667 L 86.000 63.667 86.000 47.500 L 86.000 31.333 89.167 31.333 L 92.333 31.333 92.333 33.250 C 92.333 35.513,92.346 35.521,93.685 34.090 C 96.454 31.130,100.620 30.033,104.421 31.263 M156.862 31.163 C 162.012 32.590,164.926 36.333,166.150 43.092 C 166.381 44.368,166.586 48.967,166.438 49.556 L 166.327 50.000 156.372 50.003 C 150.817 50.004,146.313 50.071,146.181 50.154 C 145.926 50.315,146.128 52.096,146.541 53.333 C 147.176 55.235,149.411 57.382,151.103 57.718 C 151.367 57.770,151.921 57.889,152.333 57.982 C 154.235 58.413,156.641 58.044,158.812 56.989 C 159.419 56.694,160.229 56.201,160.611 55.893 C 160.993 55.585,161.370 55.333,161.447 55.333 C 161.652 55.333,165.502 59.224,165.491 59.419 C 165.474 59.709,162.187 62.095,161.333 62.436 C 160.467 62.782,159.879 63.037,159.627 63.175 C 159.468 63.262,159.223 63.333,159.083 63.333 C 158.943 63.333,158.699 63.403,158.539 63.488 C 156.922 64.350,150.716 64.351,149.127 63.490 C 148.968 63.404,148.688 63.333,148.504 63.333 C 146.818 63.333,143.109 60.231,141.728 57.667 C 138.851 52.324,139.401 40.529,142.750 35.728 C 145.432 31.883,151.904 29.789,156.862 31.163 M248.583 31.336 C 246.739 31.564,245.281 31.954,243.917 32.584 C 242.183 33.385,239.667 35.291,239.667 35.802 C 239.667 35.905,240.122 36.292,240.679 36.661 C 241.235 37.031,242.154 37.664,242.720 38.067 C 244.060 39.022,244.029 39.020,245.583 38.259 C 249.586 36.300,253.174 36.282,255.697 38.208 C 256.363 38.717,257.333 40.156,257.333 40.636 C 257.333 40.799,257.416 41.016,257.517 41.117 C 257.618 41.218,257.741 42.088,257.790 43.051 L 257.880 44.800 252.148 44.873 C 245.522 44.957,244.407 45.115,242.167 46.290 C 240.411 47.210,239.307 48.481,238.558 50.444 C 237.778 52.490,237.835 57.254,238.661 58.991 C 238.729 59.133,238.926 59.550,239.099 59.917 C 240.063 61.962,242.600 63.554,246.150 64.343 C 247.270 64.592,252.045 64.614,252.833 64.374 C 255.325 63.615,256.099 63.245,257.043 62.364 C 257.626 61.820,257.800 61.990,257.865 63.167 L 257.917 64.083 260.583 64.131 C 262.050 64.157,263.419 64.137,263.625 64.086 L 264.000 63.994 263.996 53.538 C 263.993 47.788,263.922 42.370,263.837 41.498 C 263.431 37.325,261.241 34.036,257.833 32.481 C 256.966 32.086,256.520 31.939,254.897 31.513 C 253.965 31.269,250.021 31.158,248.583 31.336 M282.250 31.336 C 281.166 31.470,280.698 31.565,279.167 31.963 C 276.742 32.592,274.014 35.113,273.307 37.379 C 272.666 39.430,272.499 42.096,272.897 43.917 C 273.771 47.908,276.697 49.721,283.000 50.177 C 290.255 50.703,291.685 51.144,292.426 53.086 C 293.139 54.953,291.390 58.167,289.661 58.167 C 289.517 58.167,289.329 58.234,289.242 58.316 C 288.834 58.701,284.197 58.959,282.833 58.673 C 280.415 58.164,278.485 57.354,276.203 55.887 C 275.443 55.399,274.766 55.000,274.698 55.000 C 274.509 55.000,271.000 59.253,271.000 59.483 C 271.000 60.105,276.249 63.333,277.262 63.333 C 277.395 63.333,277.635 63.399,277.794 63.479 C 280.229 64.707,288.784 64.959,291.333 63.878 C 291.563 63.781,292.087 63.602,292.500 63.481 C 297.001 62.157,299.594 56.956,298.445 51.557 C 297.750 48.293,294.718 45.353,292.031 45.336 C 291.818 45.334,291.495 45.253,291.311 45.155 C 290.935 44.953,288.631 44.702,285.417 44.510 C 280.104 44.194,278.742 43.438,278.883 40.883 C 278.963 39.430,280.115 37.690,281.008 37.672 C 281.150 37.669,281.338 37.597,281.425 37.512 C 282.214 36.743,287.802 36.740,289.206 37.508 C 289.365 37.595,289.590 37.666,289.706 37.666 C 289.979 37.666,291.872 38.456,292.833 38.973 C 294.901 40.084,294.540 40.204,296.608 37.720 C 297.510 36.636,298.323 35.692,298.415 35.620 C 298.815 35.311,296.490 33.835,293.917 32.763 C 292.736 32.271,292.279 32.140,289.513 31.492 C 288.520 31.259,283.702 31.156,282.250 31.336 M338.000 31.343 C 330.023 32.257,326.390 38.070,326.720 49.395 C 326.807 52.375,326.913 53.305,327.422 55.583 C 327.632 56.525,328.975 59.083,329.779 60.074 C 330.948 61.514,331.959 62.246,334.539 63.523 C 334.699 63.602,334.912 63.667,335.014 63.667 C 335.116 63.667,335.436 63.773,335.725 63.904 C 337.616 64.757,343.542 64.756,345.442 63.903 C 345.731 63.773,346.050 63.667,346.152 63.667 C 346.254 63.667,346.468 63.600,346.627 63.519 C 346.786 63.437,347.367 63.160,347.917 62.902 C 349.367 62.222,350.332 61.582,352.037 60.171 C 352.506 59.783,352.444 59.688,350.332 57.582 C 348.801 56.055,348.277 55.625,348.098 55.752 C 346.138 57.142,345.153 57.636,342.988 58.314 C 338.311 59.777,333.226 56.346,332.969 51.553 L 332.917 50.583 343.000 50.500 L 353.083 50.417 353.131 47.667 C 353.271 39.616,350.273 33.947,344.750 31.820 C 343.311 31.266,340.443 31.063,338.000 31.343 M375.333 31.316 C 373.325 31.658,371.296 32.832,369.705 34.573 C 368.618 35.763,368.667 35.805,368.667 33.670 C 368.667 31.461,368.988 31.637,365.083 31.702 L 362.250 31.750 362.250 47.917 L 362.250 64.083 365.083 64.131 C 366.642 64.157,368.085 64.137,368.292 64.086 L 368.667 63.994 368.667 52.933 C 368.667 40.849,368.652 41.048,369.643 39.583 C 371.421 36.956,376.913 36.454,379.316 38.700 C 380.006 39.345,380.039 39.329,381.108 37.875 C 381.630 37.165,382.494 36.006,383.029 35.300 C 384.339 33.569,384.320 33.470,382.480 32.443 C 380.716 31.459,377.488 30.949,375.333 31.316 M151.500 36.754 C 149.067 37.445,147.377 39.063,146.630 41.417 C 146.424 42.068,146.000 44.167,146.000 44.542 C 146.000 44.815,146.453 44.833,153.191 44.833 L 160.382 44.833 160.287 43.705 C 159.858 38.585,155.947 35.492,151.500 36.754 M342.183 37.181 C 344.057 37.779,345.190 38.815,346.100 40.764 C 346.673 41.991,347.288 44.609,347.112 45.069 C 346.989 45.389,333.111 45.481,332.914 45.163 C 332.644 44.726,333.327 41.819,334.019 40.463 C 335.338 37.877,339.333 36.271,342.183 37.181 M59.167 49.915 C 58.938 50.047,58.637 50.158,58.500 50.162 C 57.462 50.189,56.438 52.139,56.430 54.102 C 56.420 56.646,57.229 57.729,59.833 58.658 C 60.633 58.944,64.508 59.072,65.833 58.857 C 69.980 58.185,70.250 57.836,70.250 53.167 L 70.250 49.750 64.917 49.713 C 60.535 49.683,59.509 49.719,59.167 49.915 M257.638 50.145 C 258.039 50.400,257.843 56.958,257.417 57.533 C 256.071 59.348,249.034 60.042,246.309 58.628 C 243.238 57.035,243.150 52.031,246.167 50.561 C 247.157 50.078,256.971 49.723,257.638 50.145 " stroke="none" fill="#fafaf9" fill-rule="evenodd"></path><path id="path1" d="M0.000 2.833 C 0.000 4.611,0.062 5.667,0.167 5.667 C 0.258 5.667,0.333 5.451,0.333 5.187 C 0.333 4.923,0.446 4.614,0.583 4.500 C 0.721 4.386,0.833 4.159,0.833 3.997 C 0.833 3.834,1.089 3.477,1.401 3.203 C 1.713 2.929,1.995 2.566,2.028 2.396 C 2.060 2.226,2.226 2.060,2.396 2.028 C 2.566 1.995,2.929 1.713,3.203 1.401 C 3.477 1.089,3.834 0.833,3.997 0.833 C 4.159 0.833,4.386 0.721,4.500 0.583 C 4.614 0.446,4.923 0.333,5.187 0.333 C 5.451 0.333,5.667 0.258,5.667 0.167 C 5.667 0.062,4.611 0.000,2.833 0.000 L 0.000 0.000 0.000 2.833 M170.000 0.167 C 170.000 0.258,170.227 0.333,170.505 0.333 C 170.801 0.333,171.050 0.437,171.106 0.583 C 171.159 0.721,171.340 0.833,171.508 0.833 C 171.676 0.833,171.860 0.908,171.917 1.000 C 171.973 1.092,172.137 1.167,172.280 1.167 C 172.619 1.167,175.167 3.714,175.167 4.053 C 175.167 4.196,175.242 4.360,175.333 4.417 C 175.425 4.473,175.500 4.743,175.500 5.015 C 175.500 5.302,175.605 5.551,175.750 5.606 C 175.971 5.691,176.000 9.519,176.000 38.667 C 176.000 67.815,175.971 71.642,175.750 71.727 C 175.605 71.782,175.500 72.032,175.500 72.318 C 175.500 72.591,175.425 72.860,175.333 72.917 C 175.242 72.973,175.167 73.157,175.167 73.326 C 175.167 73.494,174.911 73.856,174.599 74.130 C 174.287 74.404,174.005 74.768,173.972 74.937 C 173.940 75.107,173.768 75.274,173.591 75.308 C 173.414 75.342,173.128 75.549,172.956 75.768 C 172.783 75.987,172.532 76.167,172.397 76.167 C 172.262 76.167,171.950 76.354,171.703 76.583 C 171.389 76.874,171.064 77.000,170.627 77.000 C 170.282 77.000,170.000 77.075,170.000 77.167 C 170.000 77.278,208.444 77.333,285.000 77.333 L 400.000 77.333 400.000 38.667 L 400.000 0.000 285.000 0.000 C 208.444 0.000,170.000 0.056,170.000 0.167 M24.000 17.866 C 21.579 18.158,18.806 19.165,17.186 20.339 C 16.810 20.611,16.440 20.833,16.362 20.833 C 15.829 20.833,13.235 24.082,12.301 25.917 C 10.551 29.358,10.417 30.483,10.417 41.667 C 10.417 51.416,10.402 51.163,11.120 53.667 C 13.478 61.880,22.726 66.148,32.000 63.302 C 32.991 62.998,35.467 61.795,35.666 61.521 C 35.712 61.457,36.125 61.134,36.583 60.802 C 39.404 58.760,41.515 54.765,42.160 50.250 C 42.456 48.175,42.384 39.389,42.070 39.268 C 41.595 39.086,27.170 39.153,26.822 39.339 C 26.542 39.489,26.279 44.981,26.542 45.202 C 26.565 45.221,28.646 45.277,31.167 45.327 L 35.750 45.417 35.730 47.667 C 35.683 53.031,32.997 56.955,28.865 57.696 C 22.763 58.790,18.346 56.101,17.076 50.520 C 16.678 48.770,16.796 32.730,17.218 31.250 C 17.864 28.984,19.540 26.397,20.917 25.543 C 21.791 25.001,22.852 24.500,23.128 24.500 C 23.296 24.500,23.527 24.407,23.641 24.293 C 24.090 23.843,27.433 23.920,28.896 24.413 C 31.793 25.390,34.283 27.946,34.936 30.612 C 35.108 31.316,35.170 31.328,38.500 31.328 C 42.124 31.328,42.044 31.355,41.753 30.249 C 39.511 21.722,32.509 16.838,24.000 17.866 M196.029 18.776 C 196.196 18.928,196.333 19.120,196.333 19.203 C 196.333 19.287,196.530 19.781,196.771 20.302 C 197.011 20.824,197.452 21.813,197.750 22.500 C 198.048 23.188,198.497 24.200,198.747 24.750 C 198.998 25.300,199.305 25.975,199.428 26.250 C 199.552 26.525,199.919 27.329,200.243 28.037 C 200.568 28.745,200.833 29.358,200.833 29.400 C 200.833 29.442,201.058 29.969,201.333 30.572 C 201.608 31.174,202.058 32.159,202.333 32.762 C 202.608 33.364,202.833 33.886,202.833 33.922 C 202.833 33.958,203.102 34.571,203.431 35.285 C 203.759 35.999,204.092 36.733,204.170 36.917 C 204.248 37.100,204.551 37.775,204.842 38.417 C 205.133 39.058,205.615 40.146,205.913 40.833 C 206.639 42.506,207.208 43.778,208.243 46.037 C 208.568 46.745,208.835 47.382,208.837 47.454 C 208.839 47.525,208.974 47.756,209.136 47.967 L 209.432 48.352 209.787 47.634 C 209.982 47.240,210.455 46.204,210.836 45.333 C 211.507 43.803,211.686 43.402,212.666 41.250 C 212.916 40.700,213.366 39.688,213.666 39.000 C 213.966 38.313,214.463 37.201,214.772 36.529 C 215.081 35.858,215.333 35.277,215.333 35.239 C 215.333 35.200,215.596 34.600,215.917 33.905 C 216.237 33.211,216.500 32.613,216.500 32.578 C 216.500 32.542,216.770 31.929,217.099 31.215 C 217.429 30.501,217.916 29.445,218.183 28.868 C 218.449 28.290,218.667 27.778,218.667 27.728 C 218.667 27.678,218.892 27.151,219.167 26.557 C 219.442 25.963,219.667 25.449,219.667 25.415 C 219.667 25.381,219.994 24.655,220.394 23.802 C 220.794 22.948,221.445 21.500,221.840 20.583 C 222.235 19.667,222.672 18.823,222.811 18.708 C 223.160 18.421,228.347 18.414,228.633 18.700 C 228.787 18.854,228.833 24.133,228.833 41.447 L 228.833 63.994 228.458 64.086 C 228.252 64.137,226.846 64.157,225.333 64.131 L 222.583 64.083 222.500 48.889 C 222.454 40.532,222.377 33.655,222.330 33.607 C 222.246 33.524,221.746 34.523,220.882 36.500 C 220.229 37.995,220.056 38.394,219.872 38.833 C 219.775 39.063,219.547 39.587,219.364 40.000 C 219.180 40.412,218.755 41.387,218.418 42.167 C 217.777 43.652,217.554 44.161,216.888 45.667 C 216.278 47.044,216.078 47.492,215.602 48.546 C 215.362 49.076,215.167 49.547,215.167 49.594 C 215.167 49.641,214.894 50.295,214.562 51.048 C 214.229 51.801,213.860 52.642,213.743 52.917 C 213.625 53.192,213.343 53.829,213.115 54.333 C 212.887 54.837,212.524 55.663,212.308 56.167 C 211.586 57.855,211.777 57.743,209.499 57.806 C 207.499 57.861,206.833 57.700,206.833 57.160 C 206.833 57.092,206.455 56.223,205.993 55.227 C 205.531 54.231,205.088 53.267,205.008 53.083 C 204.928 52.900,204.631 52.257,204.348 51.653 C 204.065 51.050,203.833 50.510,203.833 50.453 C 203.833 50.395,203.598 49.839,203.310 49.216 C 203.022 48.593,202.654 47.783,202.491 47.417 C 202.328 47.050,202.029 46.375,201.826 45.917 C 201.622 45.458,201.241 44.613,200.978 44.037 C 200.715 43.462,200.500 42.960,200.500 42.922 C 200.500 42.884,200.192 42.192,199.816 41.385 C 199.439 40.577,198.736 39.017,198.253 37.917 C 197.770 36.817,197.203 35.526,196.993 35.049 C 196.783 34.572,196.548 34.220,196.472 34.267 C 196.396 34.314,196.333 41.022,196.333 49.173 L 196.333 63.994 195.958 64.086 C 195.752 64.137,194.346 64.157,192.833 64.131 L 190.083 64.083 190.040 41.500 C 190.017 29.079,190.033 18.823,190.077 18.708 C 190.211 18.356,195.633 18.418,196.029 18.776 M313.961 26.872 L 314.005 31.495 314.378 31.582 C 314.582 31.629,315.688 31.687,316.833 31.709 L 318.917 31.750 318.917 34.500 L 318.917 37.250 316.560 37.296 C 314.284 37.341,314.200 37.355,314.104 37.713 C 313.923 38.387,313.989 55.599,314.176 56.469 C 314.480 57.890,314.910 58.146,317.086 58.202 L 318.917 58.250 318.962 61.200 L 319.008 64.150 318.389 64.266 C 315.414 64.824,311.230 63.898,309.796 62.365 C 307.744 60.172,307.770 60.347,307.704 47.958 L 307.649 37.333 305.991 37.333 L 304.333 37.333 304.333 34.506 L 304.333 31.679 305.958 31.631 L 307.583 31.583 307.673 26.917 C 307.723 24.350,307.779 22.230,307.798 22.205 C 307.818 22.180,309.202 22.180,310.875 22.205 L 313.917 22.250 313.961 26.872 M59.917 31.094 C 58.354 31.457,57.653 31.678,56.704 32.105 C 56.220 32.322,55.785 32.500,55.737 32.500 C 55.255 32.500,52.161 35.015,52.172 35.398 C 52.178 35.607,52.225 35.643,54.718 37.331 L 56.520 38.551 57.968 37.841 C 60.170 36.760,60.201 36.751,62.333 36.491 C 67.200 35.899,70.082 38.206,70.206 42.792 L 70.250 44.417 64.500 44.518 C 57.738 44.637,57.048 44.732,54.713 45.859 C 49.477 48.389,48.785 58.233,53.588 61.871 C 54.468 62.537,56.011 63.333,56.423 63.333 C 56.560 63.333,56.801 63.403,56.961 63.488 C 58.597 64.364,65.888 64.334,66.774 63.448 C 66.837 63.385,67.025 63.333,67.191 63.333 C 67.548 63.333,69.113 62.359,69.567 61.854 C 70.042 61.326,70.333 61.674,70.333 62.770 L 70.333 63.667 73.333 63.667 L 76.333 63.667 76.332 52.875 C 76.331 41.595,76.264 40.159,75.649 38.248 C 75.053 36.394,73.248 33.809,72.153 33.243 C 71.903 33.114,71.597 32.912,71.474 32.796 C 71.199 32.535,69.462 31.744,68.667 31.517 C 66.526 30.905,65.978 30.834,63.489 30.847 C 61.926 30.856,60.524 30.952,59.917 31.094 M97.917 31.288 C 96.288 31.887,94.864 32.830,93.685 34.090 C 92.346 35.521,92.333 35.513,92.333 33.250 L 92.333 31.333 89.167 31.333 L 86.000 31.333 86.000 47.500 L 86.000 63.667 89.167 63.667 L 92.333 63.667 92.333 53.114 C 92.333 42.024,92.379 41.218,93.083 39.840 C 95.167 35.767,102.428 35.772,104.508 39.848 C 105.406 41.610,105.383 41.288,105.457 52.879 L 105.526 63.674 108.638 63.629 L 111.750 63.583 111.838 52.500 C 111.897 45.100,111.987 41.247,112.109 40.907 C 113.086 38.183,115.097 36.827,118.146 36.839 C 121.100 36.850,122.918 37.959,124.146 40.500 L 124.750 41.750 124.801 52.708 L 124.853 63.667 128.016 63.667 L 131.180 63.667 131.125 52.292 C 131.072 41.035,131.022 39.954,130.496 38.583 C 130.426 38.400,130.240 37.875,130.082 37.417 C 127.316 29.368,115.990 28.426,111.493 35.870 C 110.766 37.073,110.643 37.067,109.969 35.792 C 107.837 31.755,102.287 29.681,97.917 31.288 M149.917 31.166 C 142.823 32.964,140.031 37.624,140.008 47.702 C 139.994 53.999,140.609 56.473,142.950 59.536 C 144.097 61.038,147.454 63.333,148.504 63.333 C 148.688 63.333,148.968 63.404,149.127 63.490 C 150.716 64.351,156.922 64.350,158.539 63.488 C 158.699 63.403,158.943 63.333,159.083 63.333 C 159.223 63.333,159.468 63.262,159.627 63.175 C 159.879 63.037,160.467 62.782,161.333 62.436 C 162.187 62.095,165.474 59.709,165.491 59.419 C 165.502 59.224,161.652 55.333,161.447 55.333 C 161.370 55.333,160.993 55.585,160.611 55.893 C 158.455 57.630,154.825 58.546,152.333 57.982 C 151.921 57.889,151.367 57.770,151.103 57.718 C 149.411 57.382,147.176 55.235,146.541 53.333 C 146.128 52.096,145.926 50.315,146.181 50.154 C 146.313 50.071,150.817 50.004,156.372 50.003 L 166.327 50.000 166.438 49.556 C 166.724 48.420,166.305 43.461,165.723 41.083 C 163.816 33.297,157.397 29.269,149.917 31.166 M254.897 31.513 C 256.520 31.939,256.966 32.086,257.833 32.481 C 261.241 34.036,263.431 37.325,263.837 41.498 C 263.922 42.370,263.993 47.788,263.996 53.538 L 264.000 63.994 263.625 64.086 C 263.419 64.137,262.050 64.157,260.583 64.131 L 257.917 64.083 257.865 63.167 C 257.800 61.990,257.626 61.820,257.043 62.364 C 256.099 63.245,255.325 63.615,252.833 64.374 C 252.045 64.614,247.270 64.592,246.150 64.343 C 242.600 63.554,240.063 61.962,239.099 59.917 C 238.926 59.550,238.729 59.133,238.661 58.991 C 237.835 57.254,237.778 52.490,238.558 50.444 C 239.307 48.481,240.411 47.210,242.167 46.290 C 244.407 45.115,245.522 44.957,252.148 44.873 L 257.880 44.800 257.790 43.051 C 257.741 42.088,257.618 41.218,257.517 41.117 C 257.416 41.016,257.333 40.799,257.333 40.636 C 257.333 40.156,256.363 38.717,255.697 38.208 C 253.174 36.282,249.586 36.300,245.583 38.259 C 244.029 39.020,244.060 39.022,242.720 38.067 C 242.154 37.664,241.235 37.031,240.679 36.661 C 240.122 36.292,239.667 35.905,239.667 35.802 C 239.667 35.291,242.183 33.385,243.917 32.584 C 245.281 31.954,246.739 31.564,248.583 31.336 C 250.021 31.158,253.965 31.269,254.897 31.513 M289.513 31.492 C 292.279 32.140,292.736 32.271,293.917 32.763 C 296.490 33.835,298.815 35.311,298.415 35.620 C 298.323 35.692,297.510 36.636,296.608 37.720 C 294.540 40.204,294.901 40.084,292.833 38.973 C 291.872 38.456,289.979 37.666,289.706 37.666 C 289.590 37.666,289.365 37.595,289.206 37.508 C 287.802 36.740,282.214 36.743,281.425 37.512 C 281.338 37.597,281.150 37.669,281.008 37.672 C 280.115 37.690,278.963 39.430,278.883 40.883 C 278.742 43.438,280.104 44.194,285.417 44.510 C 288.631 44.702,290.935 44.953,291.311 45.155 C 291.495 45.253,291.818 45.334,292.031 45.336 C 294.718 45.353,297.750 48.293,298.445 51.557 C 299.594 56.956,297.001 62.157,292.500 63.481 C 292.087 63.602,291.563 63.781,291.333 63.878 C 288.784 64.959,280.229 64.707,277.794 63.479 C 277.635 63.399,277.395 63.333,277.262 63.333 C 276.249 63.333,271.000 60.105,271.000 59.483 C 271.000 59.253,274.509 55.000,274.698 55.000 C 274.766 55.000,275.443 55.399,276.203 55.887 C 278.485 57.354,280.415 58.164,282.833 58.673 C 284.197 58.959,288.834 58.701,289.242 58.316 C 289.329 58.234,289.517 58.167,289.661 58.167 C 291.390 58.167,293.139 54.953,292.426 53.086 C 291.685 51.144,290.255 50.703,283.000 50.177 C 278.733 49.868,276.446 49.110,274.818 47.466 C 272.616 45.242,272.044 41.421,273.307 37.379 C 274.014 35.113,276.742 32.592,279.167 31.963 C 280.698 31.565,281.166 31.470,282.250 31.336 C 283.702 31.156,288.520 31.259,289.513 31.492 M342.500 31.336 C 343.667 31.516,344.329 31.658,344.750 31.820 C 350.273 33.947,353.271 39.616,353.131 47.667 L 353.083 50.417 343.000 50.500 L 332.917 50.583 332.969 51.553 C 333.226 56.346,338.311 59.777,342.988 58.314 C 345.153 57.636,346.138 57.142,348.098 55.752 C 348.277 55.625,348.801 56.055,350.332 57.582 C 352.444 59.688,352.506 59.783,352.037 60.171 C 350.332 61.582,349.367 62.222,347.917 62.902 C 347.367 63.160,346.786 63.437,346.627 63.519 C 346.468 63.600,346.254 63.667,346.152 63.667 C 346.050 63.667,345.731 63.773,345.442 63.903 C 343.542 64.756,337.616 64.757,335.725 63.904 C 335.436 63.773,335.116 63.667,335.014 63.667 C 334.912 63.667,334.699 63.602,334.539 63.523 C 331.959 62.246,330.948 61.514,329.779 60.074 C 328.975 59.083,327.632 56.525,327.422 55.583 C 326.913 53.305,326.807 52.375,326.720 49.395 C 326.493 41.600,327.759 37.338,331.218 34.257 C 333.923 31.847,338.360 30.699,342.500 31.336 M380.685 31.686 C 382.427 32.258,383.986 33.214,383.995 33.717 C 383.998 33.882,383.563 34.594,383.029 35.300 C 382.494 36.006,381.630 37.165,381.108 37.875 C 380.039 39.329,380.006 39.345,379.316 38.700 C 376.913 36.454,371.421 36.956,369.643 39.583 C 368.652 41.048,368.667 40.849,368.667 52.933 L 368.667 63.994 368.292 64.086 C 368.085 64.137,366.642 64.157,365.083 64.131 L 362.250 64.083 362.250 47.917 L 362.250 31.750 365.083 31.702 C 368.988 31.637,368.667 31.461,368.667 33.670 C 368.667 35.805,368.618 35.763,369.705 34.573 C 372.496 31.519,376.761 30.397,380.685 31.686 M155.333 36.716 C 157.989 37.427,159.998 40.263,160.287 43.705 L 160.382 44.833 153.191 44.833 C 146.453 44.833,146.000 44.815,146.000 44.542 C 146.000 44.167,146.424 42.068,146.630 41.417 C 147.770 37.827,151.652 35.729,155.333 36.716 M338.167 37.230 C 335.937 37.796,334.245 39.450,333.425 41.867 C 333.111 42.792,332.778 44.942,332.914 45.163 C 333.111 45.481,346.989 45.389,347.112 45.069 C 347.288 44.609,346.673 41.991,346.100 40.764 C 344.634 37.625,341.722 36.328,338.167 37.230 M70.250 53.167 C 70.250 57.836,69.980 58.185,65.833 58.857 C 64.508 59.072,60.633 58.944,59.833 58.658 C 57.229 57.729,56.420 56.646,56.430 54.102 C 56.438 52.139,57.462 50.189,58.500 50.162 C 58.637 50.158,58.938 50.047,59.167 49.915 C 59.509 49.719,60.535 49.683,64.917 49.713 L 70.250 49.750 70.250 53.167 M247.750 50.161 C 245.125 50.464,244.100 51.683,244.100 54.500 C 244.100 58.067,245.604 59.167,250.647 59.288 C 254.277 59.376,256.472 58.807,257.417 57.533 C 257.843 56.958,258.039 50.400,257.638 50.145 C 257.377 49.980,249.204 49.993,247.750 50.161 M0.000 74.500 L 0.000 77.333 2.833 77.333 C 4.611 77.333,5.667 77.271,5.667 77.167 C 5.667 77.075,5.447 77.000,5.179 77.000 C 4.910 77.000,4.578 76.887,4.440 76.750 C 4.303 76.612,4.087 76.500,3.961 76.500 C 3.835 76.500,3.478 76.237,3.167 75.917 C 2.856 75.596,2.475 75.333,2.320 75.333 C 2.165 75.333,1.920 75.086,1.777 74.783 C 1.633 74.480,1.362 74.093,1.174 73.924 C 0.987 73.754,0.833 73.485,0.833 73.325 C 0.833 73.166,0.721 72.992,0.583 72.940 C 0.426 72.880,0.333 72.625,0.333 72.255 C 0.333 71.932,0.258 71.667,0.167 71.667 C 0.062 71.667,0.000 72.722,0.000 74.500 " stroke="none" fill="#040404" fill-rule="evenodd"></path></g></svg>