<svg id="svg" version="1.1" xmlns="http://www.w3.org/2000/svg" xmlns:xlink="http://www.w3.org/1999/xlink" width="400" height="81.26315789473685" viewBox="0, 0, 400,81.26315789473685"><g id="svgg"><path id="path0" d="M5.773 0.250 C 5.720 0.387,5.496 0.500,5.274 0.500 C 4.729 0.500,4.077 0.858,3.324 1.572 C 2.979 1.899,2.577 2.167,2.431 2.167 C 2.286 2.167,2.167 2.298,2.166 2.458 C 2.166 2.619,1.866 3.032,1.500 3.377 C 1.133 3.722,0.833 4.111,0.833 4.242 C 0.833 4.373,0.758 4.527,0.667 4.583 C 0.575 4.640,0.500 4.909,0.500 5.182 C 0.500 5.468,0.395 5.718,0.250 5.773 C -0.130 5.919,-0.130 75.248,0.250 75.394 C 0.395 75.449,0.500 75.698,0.500 75.985 C 0.500 76.257,0.575 76.527,0.667 76.583 C 0.758 76.640,0.833 76.798,0.833 76.934 C 0.833 77.071,1.021 77.356,1.250 77.569 C 1.479 77.781,1.667 78.064,1.667 78.198 C 1.667 78.495,2.354 79.167,2.658 79.167 C 2.778 79.167,3.125 79.429,3.427 79.750 C 3.730 80.071,4.086 80.333,4.218 80.333 C 4.351 80.333,4.553 80.446,4.667 80.583 C 4.781 80.721,5.090 80.833,5.354 80.833 C 5.618 80.833,5.833 80.908,5.833 81.000 C 5.833 81.111,34.722 81.167,92.167 81.167 C 149.611 81.167,178.500 81.111,178.500 81.000 C 178.500 80.908,178.824 80.833,179.221 80.833 C 179.774 80.833,180.033 80.737,180.333 80.417 C 180.549 80.188,180.864 80.000,181.034 80.000 C 181.205 80.000,181.385 79.893,181.435 79.763 C 181.485 79.632,181.786 79.402,182.105 79.251 C 182.423 79.100,182.752 78.797,182.835 78.579 C 182.918 78.360,183.214 77.978,183.493 77.730 C 183.772 77.482,184.000 77.150,184.000 76.993 C 184.000 76.836,184.112 76.614,184.250 76.500 C 184.387 76.386,184.500 76.081,184.500 75.823 C 184.500 75.564,184.575 75.307,184.667 75.250 C 184.777 75.182,184.833 63.446,184.833 40.583 C 184.833 17.721,184.777 5.985,184.667 5.917 C 184.575 5.860,184.500 5.602,184.500 5.344 C 184.500 5.086,184.387 4.781,184.250 4.667 C 184.112 4.553,184.000 4.351,184.000 4.219 C 184.000 3.907,181.426 1.333,181.114 1.333 C 180.982 1.333,180.781 1.221,180.667 1.083 C 180.553 0.946,180.318 0.833,180.146 0.833 C 179.974 0.833,179.833 0.758,179.833 0.667 C 179.833 0.575,179.568 0.500,179.245 0.500 C 178.875 0.500,178.620 0.407,178.560 0.250 C 178.414 -0.131,5.919 -0.131,5.773 0.250 M29.750 18.765 C 30.758 18.912,31.714 19.100,31.873 19.183 C 32.032 19.266,32.294 19.333,32.456 19.333 C 32.836 19.332,34.737 20.125,35.538 20.618 C 35.880 20.828,36.200 21.000,36.249 21.000 C 36.832 21.000,39.975 23.934,41.048 25.479 C 42.696 27.854,44.506 32.501,43.877 32.742 C 43.746 32.792,42.161 32.833,40.353 32.833 C 36.950 32.833,36.667 32.779,36.667 32.131 C 36.667 31.315,35.406 29.228,34.173 28.000 C 32.130 25.967,30.414 25.261,27.500 25.254 C 22.206 25.242,18.652 28.552,17.840 34.250 C 17.548 36.293,17.620 51.523,17.927 52.998 C 18.885 57.591,22.165 60.437,26.881 60.769 C 33.468 61.232,37.542 57.065,37.574 49.833 L 37.583 47.583 32.788 47.539 L 27.993 47.495 28.038 44.372 L 28.083 41.250 35.917 41.204 C 40.225 41.178,43.919 41.199,44.125 41.249 L 44.500 41.340 44.500 46.139 C 44.500 51.995,44.116 55.236,43.184 57.250 C 41.541 60.800,40.695 61.958,38.271 63.969 C 37.589 64.535,36.181 65.408,35.417 65.739 C 35.050 65.898,34.601 66.109,34.418 66.207 C 32.191 67.410,24.415 67.701,22.461 66.655 C 22.301 66.570,22.016 66.500,21.827 66.500 C 21.191 66.500,18.096 64.874,16.828 63.874 C 14.004 61.646,12.120 58.633,11.313 55.052 C 10.669 52.194,10.665 35.670,11.308 31.833 C 12.044 27.443,15.235 22.753,18.745 20.905 C 18.931 20.807,19.421 20.543,19.833 20.318 C 22.360 18.943,26.515 18.292,29.750 18.765 M191.585 20.042 C 191.532 20.340,191.510 31.083,191.536 43.917 L 191.583 67.250 194.833 67.250 L 198.083 67.250 198.167 51.717 C 198.232 39.603,198.296 36.137,198.458 35.975 C 198.625 35.808,198.667 35.827,198.667 36.066 C 198.667 36.231,198.773 36.564,198.904 36.808 C 199.034 37.051,199.290 37.587,199.473 38.000 C 199.655 38.412,199.954 39.087,200.136 39.500 C 200.861 41.144,202.287 44.319,203.166 46.250 C 203.416 46.800,203.865 47.813,204.164 48.500 C 204.462 49.188,204.893 50.163,205.122 50.667 C 205.782 52.123,206.114 52.863,206.469 53.667 C 207.030 54.937,208.344 57.868,208.785 58.833 C 209.015 59.337,209.268 59.917,209.346 60.120 C 209.538 60.621,209.917 60.688,212.250 60.632 L 214.250 60.583 214.730 59.583 C 214.994 59.033,215.269 58.433,215.342 58.250 C 215.415 58.067,215.780 57.253,216.154 56.442 C 216.528 55.631,216.833 54.933,216.833 54.890 C 216.833 54.847,217.027 54.386,217.263 53.865 C 217.500 53.343,217.758 52.767,217.837 52.583 C 217.916 52.400,218.163 51.837,218.385 51.333 C 218.608 50.829,219.222 49.404,219.749 48.167 C 220.277 46.929,220.774 45.845,220.854 45.758 C 220.934 45.671,221.000 45.508,221.000 45.396 C 221.000 45.283,221.254 44.642,221.564 43.971 C 221.874 43.299,222.331 42.262,222.580 41.667 C 222.828 41.071,223.132 40.358,223.253 40.083 C 223.375 39.808,223.673 39.133,223.916 38.583 C 224.986 36.153,225.392 35.333,225.524 35.333 C 225.601 35.333,225.684 42.515,225.707 51.292 L 225.750 67.250 229.000 67.250 L 232.250 67.250 232.250 43.417 L 232.250 19.583 229.124 19.538 L 225.999 19.493 225.568 20.455 C 225.331 20.984,224.989 21.754,224.808 22.167 C 224.346 23.221,224.115 23.733,223.432 25.215 C 223.103 25.929,222.833 26.542,222.833 26.578 C 222.833 26.613,222.580 27.192,222.271 27.863 C 221.962 28.534,221.544 29.458,221.343 29.917 C 221.141 30.375,220.875 30.975,220.751 31.250 C 220.628 31.525,220.216 32.462,219.837 33.333 C 219.457 34.204,219.011 35.217,218.845 35.583 C 218.680 35.950,218.428 36.512,218.286 36.833 C 218.145 37.154,217.842 37.829,217.614 38.333 C 217.386 38.837,216.847 40.037,216.417 41.000 C 215.986 41.962,215.454 43.146,215.234 43.630 C 215.014 44.114,214.833 44.541,214.833 44.578 C 214.833 44.616,214.527 45.308,214.152 46.115 C 213.256 48.044,212.937 48.750,212.519 49.723 C 211.991 50.951,211.890 50.846,210.338 47.448 C 209.969 46.641,209.667 45.945,209.667 45.902 C 209.667 45.859,209.401 45.245,209.077 44.537 C 208.270 42.777,208.085 42.368,207.698 41.500 C 207.515 41.087,207.133 40.239,206.849 39.613 C 206.565 38.988,206.333 38.450,206.333 38.417 C 206.333 38.384,206.080 37.808,205.771 37.137 C 204.781 34.987,204.500 34.353,204.500 34.274 C 204.500 34.231,204.231 33.608,203.902 32.890 C 203.573 32.171,203.205 31.358,203.084 31.083 C 202.963 30.808,202.595 29.997,202.265 29.279 C 201.936 28.562,201.667 27.949,201.667 27.917 C 201.667 27.863,200.825 25.980,200.251 24.750 C 199.943 24.089,199.331 22.707,198.666 21.167 C 197.888 19.364,198.208 19.500,194.737 19.500 L 191.682 19.500 191.585 20.042 M315.412 23.375 C 315.369 23.490,315.315 25.721,315.292 28.333 L 315.250 33.083 313.833 33.125 C 311.432 33.196,311.651 32.878,311.704 36.212 L 311.750 39.083 313.332 39.132 C 314.202 39.158,314.989 39.256,315.082 39.348 C 315.190 39.456,315.282 43.523,315.339 50.717 C 315.438 63.242,315.363 62.468,316.678 64.517 C 317.442 65.708,318.336 66.383,320.083 67.087 C 321.077 67.488,326.663 67.656,326.963 67.294 C 327.120 67.105,327.163 66.277,327.129 64.062 L 327.083 61.083 325.052 61.037 C 321.740 60.960,321.974 61.887,322.036 49.083 L 322.083 39.250 324.583 39.167 L 327.083 39.083 327.129 36.262 C 327.184 32.889,327.437 33.173,324.375 33.169 L 322.000 33.167 322.000 28.429 C 322.000 24.343,321.964 23.654,321.738 23.429 C 321.392 23.082,315.539 23.032,315.412 23.375 M70.099 32.582 C 70.548 32.718,71.118 32.831,71.365 32.832 C 71.612 32.833,71.860 32.908,71.917 33.000 C 71.973 33.092,72.167 33.167,72.347 33.167 C 72.748 33.167,74.796 34.140,75.240 34.541 C 75.417 34.702,75.623 34.833,75.698 34.833 C 76.212 34.833,78.350 37.430,78.924 38.750 C 80.153 41.582,80.075 40.574,80.134 54.375 L 80.188 66.833 77.010 66.833 L 73.833 66.833 73.833 65.843 C 73.833 64.569,73.694 64.509,72.613 65.325 C 72.122 65.696,71.642 66.000,71.547 66.000 C 71.452 66.000,71.281 66.112,71.167 66.250 C 71.053 66.387,70.793 66.500,70.591 66.500 C 70.388 66.500,70.171 66.552,70.108 66.614 C 69.445 67.278,64.192 67.570,61.701 67.082 C 55.360 65.839,52.835 62.673,53.043 56.225 C 53.161 52.536,54.092 50.447,56.348 48.805 C 58.659 47.124,60.360 46.809,67.833 46.683 L 73.750 46.583 73.736 44.917 C 73.712 42.041,72.560 39.925,70.500 38.969 C 70.087 38.778,69.570 38.538,69.350 38.436 C 68.812 38.186,64.379 38.221,64.123 38.477 C 64.019 38.581,63.729 38.667,63.480 38.667 C 63.231 38.667,62.815 38.775,62.555 38.906 C 62.296 39.038,61.783 39.274,61.417 39.430 C 61.050 39.586,60.551 39.853,60.308 40.023 C 60.064 40.194,59.704 40.333,59.506 40.333 C 59.227 40.333,55.445 37.932,54.779 37.332 C 54.416 37.005,56.791 35.027,58.667 34.093 C 59.171 33.843,59.796 33.531,60.055 33.402 C 60.315 33.273,60.704 33.167,60.920 33.167 C 61.137 33.167,61.360 33.092,61.417 33.000 C 61.473 32.908,61.721 32.830,61.968 32.826 C 62.215 32.822,62.792 32.714,63.250 32.587 C 64.441 32.256,69.014 32.253,70.099 32.582 M108.917 32.588 C 109.283 32.720,109.714 32.829,109.874 32.831 C 111.263 32.843,114.459 35.523,115.511 37.560 C 116.215 38.920,116.300 38.923,117.122 37.625 C 120.117 32.896,125.855 30.997,130.775 33.108 C 131.064 33.232,131.344 33.333,131.397 33.333 C 132.194 33.333,135.153 36.116,135.860 37.530 C 137.729 41.266,137.750 41.463,137.750 55.250 L 137.750 66.750 134.417 66.750 L 131.083 66.750 131.000 55.167 C 130.954 48.796,130.850 43.433,130.767 43.250 C 130.685 43.067,130.451 42.542,130.247 42.083 C 129.861 41.218,128.498 39.794,127.862 39.593 C 127.663 39.529,127.500 39.408,127.500 39.322 C 127.500 39.237,127.359 39.167,127.187 39.167 C 127.015 39.167,126.605 39.054,126.276 38.917 C 123.748 37.861,119.552 39.315,118.338 41.667 C 117.590 43.117,117.594 43.048,117.503 55.167 L 117.417 66.750 114.137 66.795 L 110.858 66.840 110.784 55.545 C 110.701 42.703,110.746 43.121,109.201 40.956 C 107.850 39.062,103.798 37.981,101.558 38.917 C 101.229 39.054,100.856 39.167,100.730 39.167 C 100.222 39.167,98.513 40.603,97.980 41.478 C 97.026 43.045,97.007 43.319,97.003 55.629 L 97.000 66.840 93.708 66.795 L 90.417 66.750 90.417 49.833 L 90.417 32.917 93.667 32.917 L 96.917 32.917 96.964 34.875 C 97.020 37.216,97.031 37.221,98.491 35.680 C 99.611 34.498,101.251 33.380,102.422 33.000 C 102.786 32.882,103.346 32.688,103.667 32.568 C 104.488 32.262,108.049 32.276,108.917 32.588 M164.250 32.588 C 164.617 32.720,165.086 32.829,165.294 32.831 C 165.501 32.832,165.801 32.897,165.961 32.974 C 169.688 34.786,171.294 36.321,172.785 39.500 C 174.271 42.666,174.737 45.006,174.745 49.333 L 174.750 52.417 164.083 52.503 C 158.217 52.551,153.391 52.607,153.359 52.628 C 153.138 52.777,153.831 55.813,154.341 56.933 C 155.638 59.782,161.161 62.010,164.034 60.845 C 164.244 60.759,164.867 60.558,165.417 60.397 C 166.355 60.123,168.712 58.812,169.272 58.252 C 169.410 58.113,169.568 58.000,169.622 58.000 C 169.806 58.000,173.833 62.065,173.833 62.251 C 173.833 62.729,171.117 64.692,169.250 65.563 C 168.700 65.820,168.038 66.135,167.778 66.265 C 167.519 66.394,167.199 66.500,167.068 66.500 C 166.936 66.500,166.699 66.567,166.539 66.650 C 164.338 67.790,157.857 67.431,154.750 65.997 C 152.183 64.812,149.936 62.687,148.850 60.417 C 148.241 59.145,148.125 58.852,147.693 57.496 C 146.813 54.734,146.767 46.653,147.610 43.000 C 149.210 36.066,153.949 32.367,161.250 32.353 C 162.873 32.349,163.786 32.421,164.250 32.588 M252.299 32.923 C 252.249 32.973,251.843 33.078,251.396 33.156 C 249.680 33.458,247.317 34.497,245.850 35.596 C 243.774 37.152,243.490 37.611,244.292 38.113 C 244.544 38.270,245.350 38.822,246.083 39.340 C 246.817 39.857,247.657 40.419,247.951 40.588 L 248.486 40.897 249.951 40.166 C 253.440 38.428,256.805 38.152,259.500 39.383 C 261.613 40.348,262.915 42.859,262.802 45.750 L 262.750 47.083 256.583 47.182 C 250.650 47.278,249.165 47.392,248.083 47.836 C 247.808 47.949,247.396 48.116,247.167 48.207 C 246.938 48.298,246.637 48.438,246.500 48.520 C 246.362 48.601,246.071 48.744,245.852 48.838 C 243.558 49.823,242.083 53.115,242.083 57.250 C 242.083 60.427,242.396 61.749,243.557 63.481 C 244.389 64.721,246.543 66.500,247.214 66.500 C 247.341 66.500,247.499 66.555,247.567 66.622 C 248.798 67.854,256.665 68.139,259.333 67.049 C 260.475 66.583,260.760 66.427,261.618 65.800 C 262.762 64.965,262.833 64.985,262.833 66.149 C 262.833 66.891,262.898 67.156,263.097 67.232 C 263.498 67.386,268.886 67.348,269.136 67.189 C 269.414 67.013,269.317 43.554,269.033 42.333 C 267.913 37.523,265.403 34.713,261.083 33.432 C 260.533 33.269,259.853 33.068,259.572 32.985 C 259.031 32.825,252.453 32.769,252.299 32.923 M287.500 32.995 C 287.362 33.087,287.063 33.162,286.833 33.163 C 285.027 33.171,280.000 36.258,280.000 37.360 C 280.000 37.444,279.849 37.717,279.665 37.966 C 278.189 39.963,278.142 46.205,279.585 48.500 C 280.108 49.331,281.525 50.703,282.187 51.018 C 284.703 52.217,285.953 52.445,292.667 52.927 C 294.206 53.037,296.694 53.481,296.908 53.684 C 296.995 53.766,297.172 53.833,297.301 53.833 C 297.430 53.833,297.824 54.062,298.176 54.341 C 300.519 56.197,299.385 60.021,296.163 61.126 C 291.686 62.662,286.120 61.553,281.445 58.195 L 280.615 57.599 279.865 58.424 C 279.452 58.878,278.882 59.557,278.599 59.933 C 278.315 60.309,277.757 61.038,277.358 61.553 C 276.521 62.637,276.456 62.485,278.338 63.844 C 279.901 64.974,280.810 65.490,282.583 66.258 C 286.819 68.093,295.030 68.294,299.250 66.666 C 303.648 64.970,305.689 61.949,305.726 57.083 C 305.752 53.633,305.104 51.716,303.287 49.875 C 302.722 49.302,302.188 48.833,302.101 48.833 C 302.014 48.833,301.825 48.730,301.680 48.604 C 300.724 47.770,296.896 47.036,291.583 46.667 C 285.663 46.256,284.335 45.341,285.020 42.147 C 285.731 38.833,292.585 37.564,297.375 39.860 C 297.535 39.937,297.816 40.075,297.998 40.167 C 298.180 40.258,298.396 40.333,298.477 40.333 C 298.559 40.333,299.243 40.675,299.998 41.092 C 301.697 42.032,301.507 42.096,303.250 40.000 C 304.051 39.037,304.929 38.014,305.202 37.726 L 305.698 37.201 304.808 36.542 C 303.791 35.790,300.860 34.343,299.500 33.921 C 298.996 33.765,298.321 33.555,298.000 33.454 C 297.679 33.354,297.042 33.201,296.583 33.115 C 295.387 32.889,287.809 32.790,287.500 32.995 M345.833 32.999 C 345.604 33.074,344.967 33.272,344.417 33.439 C 342.009 34.171,339.903 35.655,338.299 37.750 C 337.178 39.215,336.757 40.126,335.835 43.083 C 334.990 45.791,335.000 56.863,335.847 57.742 C 335.931 57.829,336.000 58.071,336.000 58.280 C 336.000 58.771,337.145 61.249,337.835 62.252 C 342.370 68.844,353.547 69.714,360.678 64.030 C 362.350 62.697,362.367 62.789,360.044 60.461 C 357.774 58.184,358.055 58.274,356.483 59.321 C 349.954 63.666,342.111 60.890,341.798 54.124 L 341.750 53.083 352.333 53.000 L 362.917 52.917 362.962 49.864 C 363.094 41.015,359.504 34.829,353.250 33.126 C 352.450 32.908,346.425 32.805,345.833 32.999 M385.333 33.030 C 385.104 33.126,384.617 33.323,384.250 33.469 C 382.736 34.071,380.564 35.793,379.814 36.987 C 379.342 37.738,379.167 37.271,379.167 35.258 C 379.167 33.689,379.122 33.352,378.903 33.268 C 378.448 33.093,372.999 33.155,372.656 33.339 C 372.340 33.508,372.333 33.873,372.333 50.336 L 372.333 67.160 372.708 67.253 C 372.915 67.303,374.433 67.324,376.083 67.297 L 379.083 67.250 379.167 55.500 C 379.258 42.602,379.197 43.370,380.264 41.653 C 382.064 38.758,388.548 38.197,390.668 40.752 C 391.069 41.234,391.439 40.993,392.521 39.542 C 396.040 34.827,395.899 35.279,394.162 34.261 C 391.938 32.957,387.116 32.285,385.333 33.030 M159.500 38.500 C 159.362 38.589,159.077 38.663,158.865 38.664 C 157.934 38.670,155.825 40.214,155.008 41.488 C 154.002 43.056,153.051 46.706,153.562 47.040 C 153.665 47.108,157.050 47.145,161.083 47.123 L 168.417 47.083 168.471 46.607 C 168.748 44.188,166.450 39.954,164.333 38.982 C 162.937 38.342,160.172 38.066,159.500 38.500 M351.456 39.035 C 354.247 39.745,356.667 43.449,356.667 47.011 L 356.667 47.500 349.167 47.500 C 342.134 47.500,341.667 47.482,341.668 47.208 C 341.692 41.564,346.293 37.722,351.456 39.035 M61.917 52.449 C 58.490 53.824,58.270 59.522,61.583 61.091 C 64.196 62.328,70.568 62.104,72.583 60.705 C 73.765 59.884,73.842 59.561,73.793 55.667 L 73.750 52.250 68.167 52.216 C 63.374 52.186,62.489 52.219,61.917 52.449 M262.750 56.250 C 262.750 61.577,261.988 62.223,255.679 62.242 C 250.325 62.258,248.434 60.976,248.422 57.322 C 248.409 53.079,249.496 52.519,257.667 52.559 L 262.750 52.583 262.750 56.250 " stroke="none" fill="#fbf9f8" fill-rule="evenodd"></path><path id="path1" d="M-0.000 2.931 C -0.000 5.200,0.047 5.846,0.208 5.793 C 0.323 5.755,0.441 5.505,0.471 5.237 C 0.501 4.969,0.595 4.679,0.679 4.592 C 0.764 4.505,0.833 4.337,0.833 4.219 C 0.833 4.101,1.133 3.722,1.500 3.377 C 1.866 3.032,2.166 2.619,2.166 2.458 C 2.167 2.294,2.294 2.164,2.458 2.161 C 2.619 2.158,3.012 1.891,3.333 1.568 C 3.953 0.943,4.658 0.552,5.320 0.468 C 5.542 0.440,5.755 0.323,5.793 0.208 C 5.846 0.047,5.200 -0.000,2.931 -0.000 L 0.000 0.000 -0.000 2.931 M178.541 0.208 C 178.578 0.323,178.885 0.440,179.221 0.468 C 179.558 0.497,179.833 0.591,179.833 0.677 C 179.833 0.763,179.974 0.833,180.146 0.833 C 180.318 0.833,180.553 0.946,180.667 1.083 C 180.781 1.221,180.982 1.333,181.114 1.333 C 181.426 1.333,184.000 3.907,184.000 4.219 C 184.000 4.351,184.112 4.553,184.250 4.667 C 184.387 4.781,184.500 5.086,184.500 5.344 C 184.500 5.602,184.575 5.860,184.667 5.917 C 184.777 5.985,184.833 17.721,184.833 40.583 C 184.833 63.446,184.777 75.182,184.667 75.250 C 184.575 75.307,184.500 75.564,184.500 75.823 C 184.500 76.081,184.387 76.386,184.250 76.500 C 184.112 76.614,184.000 76.836,184.000 76.993 C 184.000 77.150,183.772 77.482,183.493 77.730 C 183.214 77.978,182.918 78.360,182.835 78.579 C 182.752 78.797,182.423 79.100,182.105 79.251 C 181.786 79.402,181.485 79.632,181.435 79.763 C 181.385 79.893,181.205 80.000,181.034 80.000 C 180.864 80.000,180.549 80.188,180.333 80.417 C 180.033 80.737,179.774 80.833,179.221 80.833 C 178.824 80.833,178.500 80.908,178.500 81.000 C 178.500 81.111,215.528 81.167,289.250 81.167 L 400.000 81.167 400.000 40.583 L 400.000 0.000 289.236 0.000 C 200.700 0.000,178.486 0.042,178.541 0.208 M24.917 18.842 C 22.238 19.282,21.163 19.594,19.833 20.318 C 19.421 20.543,18.931 20.807,18.745 20.905 C 15.235 22.753,12.044 27.443,11.308 31.833 C 10.665 35.670,10.669 52.194,11.313 55.052 C 12.120 58.633,14.004 61.646,16.828 63.874 C 18.096 64.874,21.191 66.500,21.827 66.500 C 22.016 66.500,22.301 66.570,22.461 66.655 C 24.415 67.701,32.191 67.410,34.418 66.207 C 34.601 66.109,35.050 65.898,35.417 65.739 C 36.181 65.408,37.589 64.535,38.271 63.969 C 39.444 62.996,40.581 61.861,40.980 61.265 C 41.882 59.920,42.309 59.142,43.184 57.250 C 44.116 55.236,44.500 51.995,44.500 46.139 L 44.500 41.340 44.125 41.249 C 43.919 41.199,40.225 41.178,35.917 41.204 L 28.083 41.250 28.038 44.372 L 27.993 47.495 32.788 47.539 L 37.583 47.583 37.574 49.833 C 37.542 57.065,33.468 61.232,26.881 60.769 C 22.165 60.437,18.885 57.591,17.927 52.998 C 17.620 51.523,17.548 36.293,17.840 34.250 C 18.887 26.899,25.494 23.107,31.833 26.218 C 33.893 27.229,36.667 30.623,36.667 32.131 C 36.667 32.779,36.950 32.833,40.353 32.833 C 42.161 32.833,43.746 32.792,43.877 32.742 C 44.369 32.553,43.254 29.303,41.765 26.583 C 40.761 24.749,37.057 21.000,36.249 21.000 C 36.200 21.000,35.880 20.828,35.538 20.618 C 34.737 20.125,32.836 19.332,32.456 19.333 C 32.294 19.333,32.032 19.266,31.873 19.183 C 30.741 18.595,27.408 18.432,24.917 18.842 M197.959 19.708 C 198.051 19.823,198.369 20.479,198.666 21.167 C 199.331 22.707,199.943 24.089,200.251 24.750 C 200.825 25.980,201.667 27.863,201.667 27.917 C 201.667 27.949,201.936 28.562,202.265 29.279 C 202.595 29.997,202.963 30.808,203.084 31.083 C 203.205 31.358,203.573 32.171,203.902 32.890 C 204.231 33.608,204.500 34.231,204.500 34.274 C 204.500 34.353,204.781 34.987,205.771 37.137 C 206.080 37.808,206.333 38.384,206.333 38.417 C 206.333 38.450,206.565 38.988,206.849 39.613 C 207.133 40.239,207.515 41.087,207.698 41.500 C 208.085 42.368,208.270 42.777,209.077 44.537 C 209.401 45.245,209.667 45.859,209.667 45.902 C 209.667 45.945,209.969 46.641,210.338 47.448 C 211.890 50.846,211.991 50.951,212.519 49.723 C 212.937 48.750,213.256 48.044,214.152 46.115 C 214.527 45.308,214.833 44.616,214.833 44.578 C 214.833 44.541,215.014 44.114,215.234 43.630 C 215.454 43.146,215.986 41.962,216.417 41.000 C 216.847 40.037,217.386 38.837,217.614 38.333 C 217.842 37.829,218.145 37.154,218.286 36.833 C 218.428 36.512,218.680 35.950,218.845 35.583 C 219.011 35.217,219.457 34.204,219.837 33.333 C 220.216 32.462,220.628 31.525,220.751 31.250 C 220.875 30.975,221.141 30.375,221.343 29.917 C 221.544 29.458,221.962 28.534,222.271 27.863 C 222.580 27.192,222.833 26.613,222.833 26.578 C 222.833 26.542,223.103 25.929,223.432 25.215 C 224.115 23.733,224.346 23.221,224.808 22.167 C 224.989 21.754,225.331 20.984,225.568 20.455 L 225.999 19.493 229.124 19.538 L 232.250 19.583 232.250 43.417 L 232.250 67.250 229.000 67.250 L 225.750 67.250 225.707 51.292 C 225.684 42.515,225.601 35.333,225.524 35.333 C 225.392 35.333,224.986 36.153,223.916 38.583 C 223.673 39.133,223.375 39.808,223.253 40.083 C 223.132 40.358,222.828 41.071,222.580 41.667 C 222.331 42.262,221.874 43.299,221.564 43.971 C 221.254 44.642,221.000 45.283,221.000 45.396 C 221.000 45.508,220.934 45.671,220.854 45.758 C 220.774 45.845,220.277 46.929,219.749 48.167 C 219.222 49.404,218.608 50.829,218.385 51.333 C 218.163 51.837,217.916 52.400,217.837 52.583 C 217.758 52.767,217.500 53.343,217.263 53.865 C 217.027 54.386,216.833 54.847,216.833 54.890 C 216.833 54.933,216.528 55.631,216.154 56.442 C 215.780 57.253,215.415 58.067,215.342 58.250 C 215.269 58.433,214.994 59.033,214.730 59.583 L 214.250 60.583 212.250 60.632 C 209.917 60.688,209.538 60.621,209.346 60.120 C 209.268 59.917,209.015 59.337,208.785 58.833 C 208.344 57.868,207.030 54.937,206.469 53.667 C 206.114 52.863,205.782 52.123,205.122 50.667 C 204.893 50.163,204.462 49.188,204.164 48.500 C 203.865 47.813,203.416 46.800,203.166 46.250 C 202.287 44.319,200.861 41.144,200.136 39.500 C 199.954 39.087,199.655 38.412,199.473 38.000 C 199.290 37.587,199.034 37.051,198.904 36.808 C 198.773 36.564,198.667 36.231,198.667 36.066 C 198.667 35.827,198.625 35.808,198.458 35.975 C 198.296 36.137,198.232 39.603,198.167 51.717 L 198.083 67.250 194.833 67.250 L 191.583 67.250 191.536 43.917 C 191.510 31.083,191.532 20.340,191.585 20.042 L 191.682 19.500 194.737 19.500 C 196.981 19.500,197.837 19.555,197.959 19.708 M321.738 23.429 C 321.964 23.654,322.000 24.343,322.000 28.429 L 322.000 33.167 324.375 33.169 C 327.437 33.173,327.184 32.889,327.129 36.262 L 327.083 39.083 324.583 39.167 L 322.083 39.250 322.036 49.083 C 321.974 61.887,321.740 60.960,325.052 61.037 L 327.083 61.083 327.129 64.062 C 327.163 66.277,327.120 67.105,326.963 67.294 C 326.663 67.656,321.077 67.488,320.083 67.087 C 318.336 66.383,317.442 65.708,316.678 64.517 C 315.363 62.468,315.438 63.242,315.339 50.717 C 315.282 43.523,315.190 39.456,315.082 39.348 C 314.989 39.256,314.202 39.158,313.332 39.132 L 311.750 39.083 311.704 36.212 C 311.651 32.878,311.432 33.196,313.833 33.125 L 315.250 33.083 315.292 28.333 C 315.315 25.721,315.369 23.490,315.412 23.375 C 315.539 23.032,321.392 23.082,321.738 23.429 M63.250 32.587 C 62.792 32.714,62.215 32.822,61.968 32.826 C 61.721 32.830,61.473 32.908,61.417 33.000 C 61.360 33.092,61.137 33.167,60.920 33.167 C 60.704 33.167,60.315 33.273,60.055 33.402 C 59.796 33.531,59.171 33.843,58.667 34.093 C 56.791 35.027,54.416 37.005,54.779 37.332 C 55.445 37.932,59.227 40.333,59.506 40.333 C 59.704 40.333,60.064 40.194,60.308 40.023 C 60.551 39.853,61.050 39.586,61.417 39.430 C 61.783 39.274,62.296 39.038,62.555 38.906 C 62.815 38.775,63.231 38.667,63.480 38.667 C 63.729 38.667,64.019 38.581,64.123 38.477 C 64.379 38.221,68.812 38.186,69.350 38.436 C 69.570 38.538,70.087 38.778,70.500 38.969 C 72.560 39.925,73.712 42.041,73.736 44.917 L 73.750 46.583 67.833 46.683 C 60.360 46.809,58.659 47.124,56.348 48.805 C 54.092 50.447,53.161 52.536,53.043 56.225 C 52.835 62.673,55.360 65.839,61.701 67.082 C 64.192 67.570,69.445 67.278,70.108 66.614 C 70.171 66.552,70.388 66.500,70.591 66.500 C 70.793 66.500,71.053 66.387,71.167 66.250 C 71.281 66.112,71.452 66.000,71.547 66.000 C 71.642 66.000,72.122 65.696,72.613 65.325 C 73.694 64.509,73.833 64.569,73.833 65.843 L 73.833 66.833 77.010 66.833 L 80.188 66.833 80.134 54.375 C 80.075 40.574,80.153 41.582,78.924 38.750 C 78.350 37.430,76.212 34.833,75.698 34.833 C 75.623 34.833,75.417 34.702,75.240 34.541 C 74.796 34.140,72.748 33.167,72.347 33.167 C 72.167 33.167,71.973 33.092,71.917 33.000 C 71.860 32.908,71.612 32.833,71.365 32.832 C 71.118 32.831,70.548 32.718,70.099 32.582 C 69.014 32.253,64.441 32.256,63.250 32.587 M103.667 32.568 C 103.346 32.688,102.786 32.882,102.422 33.000 C 101.251 33.380,99.611 34.498,98.491 35.680 C 97.031 37.221,97.020 37.216,96.964 34.875 L 96.917 32.917 93.667 32.917 L 90.417 32.917 90.417 49.833 L 90.417 66.750 93.708 66.795 L 97.000 66.840 97.003 55.629 C 97.007 43.319,97.026 43.045,97.980 41.478 C 98.513 40.603,100.222 39.167,100.730 39.167 C 100.856 39.167,101.229 39.054,101.558 38.917 C 103.798 37.981,107.850 39.062,109.201 40.956 C 110.746 43.121,110.701 42.703,110.784 55.545 L 110.858 66.840 114.137 66.795 L 117.417 66.750 117.503 55.167 C 117.594 43.048,117.590 43.117,118.338 41.667 C 119.552 39.315,123.748 37.861,126.276 38.917 C 126.605 39.054,127.015 39.167,127.187 39.167 C 127.359 39.167,127.500 39.237,127.500 39.322 C 127.500 39.408,127.663 39.529,127.862 39.593 C 128.498 39.794,129.861 41.218,130.247 42.083 C 130.451 42.542,130.685 43.067,130.767 43.250 C 130.850 43.433,130.954 48.796,131.000 55.167 L 131.083 66.750 134.417 66.750 L 137.750 66.750 137.750 55.250 C 137.750 41.463,137.729 41.266,135.860 37.530 C 135.153 36.116,132.194 33.333,131.397 33.333 C 131.344 33.333,131.064 33.232,130.775 33.108 C 125.855 30.997,120.117 32.896,117.122 37.625 C 116.300 38.923,116.215 38.920,115.511 37.560 C 114.459 35.523,111.263 32.843,109.874 32.831 C 109.714 32.829,109.283 32.720,108.917 32.588 C 108.049 32.276,104.488 32.262,103.667 32.568 M157.917 32.601 C 156.184 33.024,155.609 33.212,154.667 33.667 C 150.279 35.784,148.019 39.347,147.163 45.500 C 146.929 47.179,147.035 54.179,147.320 55.829 C 147.492 56.829,147.600 57.238,148.046 58.583 C 149.112 61.803,151.582 64.535,154.750 65.997 C 157.857 67.431,164.338 67.790,166.539 66.650 C 166.699 66.567,166.936 66.500,167.068 66.500 C 167.199 66.500,167.519 66.394,167.778 66.265 C 168.038 66.135,168.700 65.820,169.250 65.563 C 171.117 64.692,173.833 62.729,173.833 62.251 C 173.833 62.065,169.806 58.000,169.622 58.000 C 169.568 58.000,169.410 58.113,169.272 58.252 C 168.712 58.812,166.355 60.123,165.417 60.397 C 164.867 60.558,164.244 60.759,164.034 60.845 C 161.161 62.010,155.638 59.782,154.341 56.933 C 153.831 55.813,153.138 52.777,153.359 52.628 C 153.391 52.607,158.217 52.551,164.083 52.503 L 174.750 52.417 174.745 49.333 C 174.737 45.006,174.271 42.666,172.785 39.500 C 171.294 36.321,169.688 34.786,165.961 32.974 C 165.801 32.897,165.501 32.832,165.294 32.831 C 165.086 32.829,164.617 32.720,164.250 32.588 C 163.342 32.261,159.278 32.269,157.917 32.601 M259.572 32.985 C 259.853 33.068,260.533 33.269,261.083 33.432 C 265.403 34.713,267.913 37.523,269.033 42.333 C 269.317 43.554,269.414 67.013,269.136 67.189 C 268.886 67.348,263.498 67.386,263.097 67.232 C 262.898 67.156,262.833 66.891,262.833 66.149 C 262.833 64.985,262.762 64.965,261.618 65.800 C 259.334 67.468,256.349 68.067,252.250 67.680 C 250.072 67.474,247.936 66.992,247.567 66.622 C 247.499 66.555,247.341 66.500,247.214 66.500 C 246.543 66.500,244.389 64.721,243.557 63.481 C 241.676 60.675,241.454 55.106,243.093 51.826 C 243.521 50.969,245.250 49.097,245.852 48.838 C 246.071 48.744,246.362 48.601,246.500 48.520 C 246.637 48.438,246.938 48.298,247.167 48.207 C 247.396 48.116,247.808 47.949,248.083 47.836 C 249.165 47.392,250.650 47.278,256.583 47.182 L 262.750 47.083 262.802 45.750 C 263.026 40.024,258.121 37.172,251.750 39.324 C 251.567 39.386,250.757 39.765,249.951 40.166 L 248.486 40.897 247.951 40.588 C 247.657 40.419,246.817 39.857,246.083 39.340 C 245.350 38.822,244.544 38.270,244.292 38.113 C 243.693 37.738,243.713 37.427,244.375 36.805 C 245.683 35.575,247.419 34.484,249.083 33.845 C 250.114 33.449,250.666 33.284,251.396 33.156 C 251.843 33.078,252.249 32.973,252.299 32.923 C 252.453 32.769,259.031 32.825,259.572 32.985 M296.583 33.115 C 297.042 33.201,297.679 33.354,298.000 33.454 C 298.321 33.555,298.996 33.765,299.500 33.921 C 300.860 34.343,303.791 35.790,304.808 36.542 L 305.698 37.201 305.202 37.726 C 304.929 38.014,304.051 39.037,303.250 40.000 C 301.507 42.096,301.697 42.032,299.998 41.092 C 299.243 40.675,298.559 40.333,298.477 40.333 C 298.396 40.333,298.180 40.258,297.998 40.167 C 297.242 39.786,297.042 39.708,296.167 39.453 C 292.835 38.482,289.730 38.489,287.286 39.476 C 285.421 40.228,284.327 42.854,285.163 44.572 C 285.826 45.936,287.114 46.356,291.583 46.667 C 296.896 47.036,300.724 47.770,301.680 48.604 C 301.825 48.730,302.014 48.833,302.101 48.833 C 302.467 48.833,304.346 50.980,304.800 51.917 C 306.009 54.411,306.087 58.360,304.989 61.500 C 304.278 63.534,301.959 65.621,299.250 66.666 C 295.030 68.294,286.819 68.093,282.583 66.258 C 280.810 65.490,279.901 64.974,278.338 63.844 C 276.456 62.485,276.521 62.637,277.358 61.553 C 277.757 61.038,278.315 60.309,278.599 59.933 C 278.882 59.557,279.452 58.878,279.865 58.424 L 280.615 57.599 281.445 58.195 C 288.897 63.548,299.333 62.851,299.333 57.000 C 299.333 55.458,298.290 53.833,297.301 53.833 C 297.172 53.833,296.995 53.766,296.908 53.684 C 296.694 53.481,294.206 53.037,292.667 52.927 C 285.953 52.445,284.703 52.217,282.187 51.018 C 281.525 50.703,280.108 49.331,279.585 48.500 C 278.142 46.205,278.189 39.963,279.665 37.966 C 279.849 37.717,280.000 37.444,280.000 37.360 C 280.000 36.258,285.027 33.171,286.833 33.163 C 287.063 33.162,287.362 33.087,287.500 32.995 C 287.809 32.790,295.387 32.889,296.583 33.115 M353.250 33.126 C 359.504 34.829,363.094 41.015,362.962 49.864 L 362.917 52.917 352.333 53.000 L 341.750 53.083 341.798 54.124 C 342.111 60.890,349.954 63.666,356.483 59.321 C 358.055 58.274,357.774 58.184,360.044 60.461 C 362.367 62.789,362.350 62.697,360.678 64.030 C 356.557 67.315,351.519 68.439,345.750 67.361 C 342.724 66.795,339.552 64.748,337.835 62.252 C 337.145 61.249,336.000 58.771,336.000 58.280 C 336.000 58.071,335.931 57.829,335.847 57.742 C 335.000 56.863,334.990 45.791,335.835 43.083 C 336.757 40.126,337.178 39.215,338.299 37.750 C 339.903 35.655,342.009 34.171,344.417 33.439 C 344.967 33.272,345.604 33.074,345.833 32.999 C 346.425 32.805,352.450 32.908,353.250 33.126 M391.944 33.254 C 395.344 34.428,395.834 35.090,394.564 36.799 C 391.171 41.364,391.174 41.362,390.668 40.752 C 388.548 38.197,382.064 38.758,380.264 41.653 C 379.197 43.370,379.258 42.602,379.167 55.500 L 379.083 67.250 376.083 67.297 C 374.433 67.324,372.915 67.303,372.708 67.253 L 372.333 67.160 372.333 50.336 C 372.333 33.873,372.340 33.508,372.656 33.339 C 372.999 33.155,378.448 33.093,378.903 33.268 C 379.122 33.352,379.167 33.689,379.167 35.258 C 379.167 37.271,379.342 37.738,379.814 36.987 C 380.564 35.793,382.736 34.071,384.250 33.469 C 384.617 33.323,385.104 33.126,385.333 33.030 C 386.251 32.647,390.612 32.794,391.944 33.254 M163.155 38.524 C 166.144 39.482,168.821 43.552,168.471 46.607 L 168.417 47.083 161.083 47.123 C 157.050 47.145,153.665 47.108,153.562 47.040 C 153.051 46.706,154.002 43.056,155.008 41.488 C 155.825 40.214,157.934 38.670,158.865 38.664 C 159.077 38.663,159.362 38.589,159.500 38.500 C 159.847 38.275,162.432 38.293,163.155 38.524 M347.333 39.061 C 344.025 39.893,341.685 43.258,341.668 47.208 C 341.667 47.482,342.134 47.500,349.167 47.500 L 356.667 47.500 356.667 47.011 C 356.667 41.508,352.322 37.807,347.333 39.061 M73.793 55.667 C 73.842 59.561,73.765 59.884,72.583 60.705 C 70.568 62.104,64.196 62.328,61.583 61.091 C 58.946 59.843,58.394 54.827,60.706 53.119 C 61.949 52.200,62.125 52.179,68.167 52.216 L 73.750 52.250 73.793 55.667 M251.917 52.670 C 249.329 53.197,248.413 54.416,248.422 57.322 C 248.434 60.976,250.325 62.258,255.679 62.242 C 261.988 62.223,262.750 61.577,262.750 56.250 L 262.750 52.583 257.667 52.559 C 254.871 52.545,252.283 52.595,251.917 52.670 M0.000 78.236 L 0.000 81.167 2.917 81.167 C 4.750 81.167,5.833 81.105,5.833 81.000 C 5.833 80.908,5.618 80.833,5.354 80.833 C 5.090 80.833,4.781 80.721,4.667 80.583 C 4.553 80.446,4.351 80.333,4.218 80.333 C 4.086 80.333,3.730 80.071,3.427 79.750 C 3.125 79.429,2.768 79.167,2.634 79.167 C 2.338 79.167,1.667 78.479,1.667 78.175 C 1.667 78.054,1.479 77.781,1.250 77.569 C 1.021 77.356,0.833 77.082,0.833 76.958 C 0.833 76.834,0.764 76.662,0.679 76.575 C 0.595 76.488,0.501 76.197,0.471 75.930 C 0.441 75.662,0.323 75.412,0.208 75.374 C 0.047 75.321,0.000 75.966,0.000 78.236 " stroke="none" fill="#040404" fill-rule="evenodd"></path></g></svg>